ffmpeg started on 2023-01-29 at 03:22:39
Report written to "D:/java/GitHub/pornMagnetSpringBoot/jiuse911Modeul/Logs/2023-01-29_03-21-39-724_ffreport.log"
Command line:
"D:\\java\\GitHub\\pornMagnetSpringBoot\\ffmpeg.exe" -loglevel warning -i "concat:00.ts|01.ts|02.ts|03.ts|04.ts|05.ts|06.ts|07.ts|08.ts|09.ts|10.ts|11.ts|12.ts|13.ts|14.ts|15.ts|16.ts|17.ts|18.ts|19.ts|20.ts|21.ts|22.ts|23.ts|24.ts|25.ts|26.ts|27.ts|28.ts|29.ts|30.ts|31.ts|32.ts|33.ts|34.ts|35.ts|36.ts|37.ts|38.ts|39.ts|40.ts|41.ts|42.ts|43.ts|44.ts|45.ts|46.ts|" -map "0:v?" -map "0:a?" -map "0:s?" -metadata "date=2023-01-29T03:22:39.0050131+08:00" -metadata "encoding_tool=" -metadata "title=" -metadata "copyright=" -metadata "comment=" -metadata:s:a:0 "handler_name=" -metadata:s:a:0 "handler=" -c copy -y -bsf:a aac_adtstoasc "D:\\java\\GitHub\\pornMagnetSpringBoot\\Downloads\\\xc4\xe3\xc2\xe8\xb5\xc4\xa3\xac\xce\xd2\xb0\xb2\xc8\xab\xc6\xda\xc4\xe3\xbb\xb9\xc4\xda\xc9\xe4\xa3\xac\xce\xd2\xd2\xaa\xca\xc7\xbb\xb3\xd4\xd0\xc1\xcb\xce\xd2\xc2\xe8\xbb\xe1\xc9\xb1\xc1\xcb\xce\xd2\xb5\xc4.mp4"
ffmpeg version N-94813-g85386c36e3-ffmpeg-for-N_m3u8DL-CLI Copyright (c) 2000-2019 the FFmpeg developers
  built with gcc 8.2.0 (GCC)
  libavutil      56. 35.100 / 56. 35.100
  libavcodec     58. 56.101 / 58. 56.101
  libavformat    58. 32.104 / 58. 32.104
  libavfilter     7. 58.102 /  7. 58.102
  libavresample   4.  0.  0 /  4.  0.  0
  libswresample   3.  6.100 /  3.  6.100
Input #0, mpegts, from 'concat:00.ts|01.ts|02.ts|03.ts|04.ts|05.ts|06.ts|07.ts|08.ts|09.ts|10.ts|11.ts|12.ts|13.ts|14.ts|15.ts|16.ts|17.ts|18.ts|19.ts|20.ts|21.ts|22.ts|23.ts|24.ts|25.ts|26.ts|27.ts|28.ts|29.ts|30.ts|31.ts|32.ts|33.ts|34.ts|35.ts|36.ts|37.ts|38.ts|39.ts|40.ts|41.ts|42.ts|43.ts|44.ts|45.ts|46.ts|':
  Duration: 00:07:44.02, start: 1.445744, bitrate: 548 kb/s
  Program 1 
    Metadata:
      service_name    : Service01
      service_provider: FFmpeg
    Stream #0:0[0x100]: Video: h264 ([27][0][0][0] / 0x001B), yuv420p(progressive), 600x336, 29 fps, 29 tbr, 90k tbn, 58 tbc
    Stream #0:1[0x101](und): Audio: aac ([15][0][0][0] / 0x000F), 44100 Hz, stereo, fltp, 127 kb/s
Output #0, mp4, to 'D:\java\GitHub\pornMagnetSpringBoot\Downloads\你妈的，我安全期你还内射，我要是怀孕了我妈会杀了我的.mp4':
  Metadata:
    date            : 2023-01-29T03:22:39.0050131+08:00
    encoder         : Lavf58.32.104
    Stream #0:0: Video: h264 (avc1 / 0x31637661), yuv420p(progressive), 600x336, q=2-31, 29 fps, 29 tbr, 90k tbn, 90k tbc
    Stream #0:1(und): Audio: aac (mp4a / 0x6134706D), 44100 Hz, stereo, fltp, 127 kb/s
Stream mapping:
  Stream #0:0 -> #0:0 (copy)
  Stream #0:1 -> #0:1 (copy)
Press [q] to stop, [?] for help
frame=13456 fps=0.0 q=-1.0 Lsize=   29035kB time=00:07:44.00 bitrate= 512.6kbits/s speed=3.33e+03x    
video:21156kB audio:7282kB subtitle:0kB other streams:0kB global headers:0kB muxing overhead: 2.100434%
